<svg width="36" height="24" viewBox="0 0 36 24" fill="none" xmlns="http://www.w3.org/2000/svg">
<path fill-rule="evenodd" clip-rule="evenodd" d="M0.5 11.9999C0.5 11.6684 0.631696 11.3504 0.866117 11.116C1.10054 10.8816 1.41848 10.7499 1.75 10.7499L31.2325 10.7499L23.365 2.88488C23.1303 2.65017 22.9984 2.33182 22.9984 1.99988C22.9984 1.66795 23.1303 1.3496 23.365 1.11488C23.5997 0.880167 23.9181 0.748307 24.25 0.748307C24.5819 0.748307 24.9003 0.880167 25.135 1.11488L35.135 11.1149C35.2514 11.231 35.3438 11.3689 35.4068 11.5208C35.4698 11.6727 35.5022 11.8355 35.5022 11.9999C35.5022 12.1643 35.4698 12.3271 35.4068 12.479C35.3438 12.6308 35.2514 12.7688 35.135 12.8849L25.135 22.8849C24.9003 23.1196 24.5819 23.2515 24.25 23.2515C23.9181 23.2515 23.5997 23.1196 23.365 22.8849C23.1303 22.6502 22.9984 22.3318 22.9984 21.9999C22.9984 21.6679 23.1303 21.3496 23.365 21.1149L31.2325 13.2499L1.75 13.2499C1.41848 13.2499 1.10054 13.1182 0.866117 12.8838C0.631696 12.6493 0.5 12.3314 0.5 11.9999Z" fill="#FFF38A"/>
</svg>
