<svg width="223" height="168" viewBox="0 0 223 168" fill="none" xmlns="http://www.w3.org/2000/svg">
<path d="M33.2143 164.548H65.506V145.677V2.30137H58.125L0 44.4164H33.2143V145.447V164.548Z" fill="#FFF38A"/>
<path d="M155.649 0C122.665 0 97.7544 22.7836 97.7544 55.6931C97.7544 85.8411 119.205 106.784 150.113 106.784C167.182 106.784 179.637 100.8 187.479 89.2931C182.866 124.044 159.339 142.685 128.432 142.685C115.054 142.685 105.366 141.074 96.6011 137.162C97.5238 154.652 115.054 168 142.04 168C189.324 168 223 130.027 223 76.8657C223 28.3068 198.551 0 155.649 0ZM133.045 53.8521C133.045 37.9726 143.885 27.6164 158.878 27.6164C174.562 27.6164 184.25 37.5123 187.249 60.526C182.405 72.7233 172.025 79.8575 159.109 79.8575C143.424 79.8575 133.045 69.2712 133.045 53.8521Z" fill="#FFF38A"/>
</svg>
