<svg width="126" height="169" viewBox="0 0 126 169" fill="none" xmlns="http://www.w3.org/2000/svg">
<path d="M63.3468 169C101.031 169 126 146.544 126 119.458C126 99.0849 118.139 85.6575 99.1817 76.8603C110.279 71.0726 120.22 59.9603 120.22 43.5233C120.22 18.289 97.1009 0 62.6532 0C28.8991 0 5.77982 21.5301 5.77982 47.2274C5.77982 63.4329 13.178 76.1658 25.6624 84.2685C9.24771 90.7507 0 103.715 0 121.541C0 148.859 24.7376 169 63.3468 169ZM33.9853 119.226C33.9853 107.882 39.7651 99.548 52.0184 94.2233L70.5138 99.548C85.5413 102.789 92.0147 109.966 92.0147 120.384C92.0147 133.811 80.2239 142.608 63.3468 142.608C45.0826 142.608 33.9853 133.116 33.9853 119.226ZM38.1468 43.2918C38.1468 31.9479 47.8569 24.0767 62.6532 24.0767C77.4495 24.0767 88.0844 33.5685 88.0844 45.8384C88.0844 55.7932 83.2294 62.7384 70.0514 67.3685L59.8789 64.5904C44.1578 60.8863 38.1468 53.0151 38.1468 43.2918Z" fill="#FFF38A"/>
</svg>
